<svg width="219" height="143" viewBox="0 0 219 143" fill="none" xmlns="http://www.w3.org/2000/svg">
<g clip-path="url(#clip0_558_25029)">
<mask id="path-1-inside-1_558_25029" fill="white">
<path d="M26 0H240V115.768H26V0Z"/>
</mask>
<path d="M240 114.537H26V117H240V114.537Z" fill="#DCE4E8" mask="url(#path-1-inside-1_558_25029)"/>
<mask id="path-3-inside-2_558_25029" fill="white">
<path d="M26 86.042H240V87.2736H26V86.042Z"/>
</mask>
<path d="M240 86.042H26V88.5052H240V86.042Z" fill="#DCE4E8" mask="url(#path-3-inside-2_558_25029)"/>
<mask id="path-5-inside-3_558_25029" fill="white">
<path d="M26 44.1685H240V45.4H26V44.1685Z"/>
</mask>
<path d="M240 45.4V44.1685H26V45.4V46.6316H240V45.4Z" fill="#DCE4E8" mask="url(#path-5-inside-3_558_25029)"/>
<mask id="path-7-inside-4_558_25029" fill="white">
<path d="M46 116L46 40H47L47 116H46Z"/>
</mask>
<path d="M47.6158 116V112.2H46.3842V116H47.6158ZM47.6158 104.6V97H46.3842V104.6H47.6158ZM47.6158 89.4V81.8H46.3842V89.4H47.6158ZM47.6158 74.2V66.6H46.3842V74.2H47.6158ZM47.6158 59L47.6158 51.4H46.3842L46.3842 59H47.6158ZM47.6158 43.8V40H46.3842V43.8H47.6158ZM48.2316 116V112.2H45.7684V116H48.2316ZM48.2316 104.6V97H45.7684V104.6H48.2316ZM48.2316 89.4V81.8H45.7684V89.4H48.2316ZM48.2316 74.2V66.6H45.7684V74.2H48.2316ZM48.2316 59L48.2316 51.4H45.7684L45.7684 59H48.2316ZM48.2316 43.8V40H45.7684V43.8H48.2316Z" fill="#DCE4E8" mask="url(#path-7-inside-4_558_25029)"/>
<mask id="path-9-inside-5_558_25029" fill="white">
<path d="M103 117V40H104V117H103Z"/>
</mask>
<path d="M104.616 117V113.15H103.384V117H104.616ZM104.616 105.45V97.75H103.384V105.45H104.616ZM104.616 90.05V82.35H103.384V90.05H104.616ZM104.616 74.65V66.95H103.384V74.65H104.616ZM104.616 59.25V51.55H103.384V59.25H104.616ZM104.616 43.85V40H103.384V43.85H104.616ZM105.232 117V113.15H102.768V117H105.232ZM105.232 105.45V97.75H102.768V105.45H105.232ZM105.232 90.05V82.35H102.768V90.05H105.232ZM105.232 74.65V66.95H102.768V74.65H105.232ZM105.232 59.25V51.55H102.768V59.25H105.232ZM105.232 43.85V40H102.768V43.85H105.232Z" fill="#DCE4E8" mask="url(#path-9-inside-5_558_25029)"/>
<mask id="path-11-inside-6_558_25029" fill="white">
<path d="M160 116V39H161V116H160Z"/>
</mask>
<path d="M161.616 116V112.15H160.384V116H161.616ZM161.616 104.45V96.75H160.384V104.45H161.616ZM161.616 89.05V81.35H160.384V89.05H161.616ZM161.616 73.65V65.95H160.384V73.65H161.616ZM161.616 58.25V50.55H160.384V58.25H161.616ZM161.616 42.85V39H160.384V42.85H161.616ZM162.232 116V112.15H159.768V116H162.232ZM162.232 104.45V96.75H159.768V104.45H162.232ZM162.232 89.05V81.35H159.768V89.05H162.232ZM162.232 73.65V65.95H159.768V73.65H162.232ZM162.232 58.25V50.55H159.768V58.25H162.232ZM162.232 42.85V39H159.768V42.85H162.232Z" fill="#DCE4E8" mask="url(#path-11-inside-6_558_25029)"/>
<rect x="38" y="65" width="20" height="51" fill="#E7854D"/>
<rect x="94" y="73" width="20" height="43" fill="#E7854D"/>
<rect x="148" y="53" width="20" height="63" fill="#E7854D"/>
<rect x="208" y="81" width="20" height="35" fill="#E7854D"/>
<path d="M2.346 46V38.344L0.72 39.322V38.332L2.346 37.36H3.24V46H2.346ZM8.21578 46.18C7.68378 46.18 7.20378 46.056 6.77578 45.808C6.35178 45.56 6.01578 45.224 5.76778 44.8C5.51978 44.372 5.39578 43.892 5.39578 43.36V40C5.39578 39.468 5.51978 38.99 5.76778 38.566C6.01578 38.138 6.35178 37.8 6.77578 37.552C7.20378 37.304 7.68378 37.18 8.21578 37.18C8.74778 37.18 9.22578 37.304 9.64978 37.552C10.0778 37.8 10.4158 38.138 10.6638 38.566C10.9118 38.99 11.0358 39.468 11.0358 40V43.36C11.0358 43.892 10.9118 44.372 10.6638 44.8C10.4158 45.224 10.0778 45.56 9.64978 45.808C9.22578 46.056 8.74778 46.18 8.21578 46.18ZM8.21578 45.328C8.57178 45.328 8.89578 45.242 9.18778 45.07C9.47978 44.894 9.71178 44.66 9.88378 44.368C10.0558 44.076 10.1418 43.754 10.1418 43.402V39.958C10.1418 39.602 10.0558 39.278 9.88378 38.986C9.71178 38.694 9.47978 38.462 9.18778 38.29C8.89578 38.114 8.57178 38.026 8.21578 38.026C7.85978 38.026 7.53578 38.114 7.24378 38.29C6.95178 38.462 6.71978 38.694 6.54778 38.986C6.37578 39.278 6.28978 39.602 6.28978 39.958V43.402C6.28978 43.754 6.37578 44.076 6.54778 44.368C6.71978 44.66 6.95178 44.894 7.24378 45.07C7.53578 45.242 7.85978 45.328 8.21578 45.328ZM12.594 46L12.6 37.36H13.488V42.64L16.38 39.52H17.556L14.52 42.76L17.952 46H16.668L13.488 42.88V46H12.594Z" fill="#ACB5BB"/>
<path d="M3.39 78.18C2.942 78.18 2.528 78.088 2.148 77.904C1.768 77.72 1.444 77.466 1.176 77.142C0.908 76.818 0.716 76.446 0.6 76.026L1.446 75.798C1.522 76.11 1.66 76.38 1.86 76.608C2.06 76.832 2.294 77.006 2.562 77.13C2.834 77.254 3.118 77.316 3.414 77.316C3.798 77.316 4.142 77.224 4.446 77.04C4.754 76.852 4.998 76.604 5.178 76.296C5.358 75.988 5.448 75.65 5.448 75.282C5.448 74.902 5.354 74.56 5.166 74.256C4.978 73.948 4.73 73.704 4.422 73.524C4.114 73.344 3.778 73.254 3.414 73.254C3.006 73.254 2.654 73.344 2.358 73.524C2.062 73.7 1.826 73.922 1.65 74.19L0.846 73.854L1.11 69.36H5.724V70.206H1.5L1.938 69.792L1.704 73.626L1.482 73.332C1.73 73.048 2.03 72.826 2.382 72.666C2.734 72.506 3.104 72.426 3.492 72.426C4.024 72.426 4.504 72.554 4.932 72.81C5.36 73.062 5.7 73.404 5.952 73.836C6.204 74.268 6.33 74.75 6.33 75.282C6.33 75.81 6.196 76.294 5.928 76.734C5.66 77.17 5.304 77.52 4.86 77.784C4.416 78.048 3.926 78.18 3.39 78.18ZM7.63978 78L7.64578 69.36H8.53378V74.64L11.4258 71.52H12.6018L9.56578 74.76L12.9978 78H11.7138L8.53378 74.88V78H7.63978Z" fill="#ACB5BB"/>
<path d="M2.346 110V102.344L0.72 103.322V102.332L2.346 101.36H3.24V110H2.346ZM5.38978 110L5.39578 101.36H6.28378V106.64L9.17578 103.52H10.3518L7.31578 106.76L10.7478 110H9.46378L6.28378 106.88V110H5.38978Z" fill="#ACB5BB"/>
<path d="M40.316 140.174C39.74 140.174 39.246 140.014 38.834 139.694C38.422 139.374 38.144 138.946 38 138.41L38.882 138.2C38.954 138.516 39.12 138.784 39.38 139.004C39.644 139.22 39.954 139.328 40.31 139.328C40.534 139.328 40.76 139.274 40.988 139.166C41.22 139.058 41.402 138.88 41.534 138.632C41.622 138.46 41.672 138.274 41.684 138.074C41.7 137.87 41.708 137.626 41.708 137.342V131.36H42.596V137.342C42.596 137.582 42.594 137.8 42.59 137.996C42.586 138.188 42.564 138.374 42.524 138.554C42.488 138.73 42.418 138.908 42.314 139.088C42.106 139.452 41.826 139.724 41.474 139.904C41.126 140.084 40.74 140.174 40.316 140.174ZM46.1404 140.18C45.6524 140.18 45.2424 140.092 44.9104 139.916C44.5824 139.74 44.3364 139.506 44.1724 139.214C44.0084 138.922 43.9264 138.604 43.9264 138.26C43.9264 137.908 43.9964 137.608 44.1364 137.36C44.2804 137.108 44.4744 136.902 44.7184 136.742C44.9664 136.582 45.2524 136.46 45.5764 136.376C45.9044 136.296 46.2664 136.226 46.6624 136.166C47.0624 136.102 47.4524 136.048 47.8324 136.004C48.2164 135.956 48.5524 135.91 48.8404 135.866L48.5284 136.058C48.5404 135.418 48.4164 134.944 48.1564 134.636C47.8964 134.328 47.4444 134.174 46.8004 134.174C46.3564 134.174 45.9804 134.274 45.6724 134.474C45.3684 134.674 45.1544 134.99 45.0304 135.422L44.1724 135.17C44.3204 134.59 44.6184 134.14 45.0664 133.82C45.5144 133.5 46.0964 133.34 46.8124 133.34C47.4044 133.34 47.9064 133.452 48.3184 133.676C48.7344 133.896 49.0284 134.216 49.2004 134.636C49.2804 134.824 49.3324 135.034 49.3564 135.266C49.3804 135.498 49.3924 135.734 49.3924 135.974V140H48.6064V138.374L48.8344 138.47C48.6144 139.026 48.2724 139.45 47.8084 139.742C47.3444 140.034 46.7884 140.18 46.1404 140.18ZM46.2424 139.418C46.6544 139.418 47.0144 139.344 47.3224 139.196C47.6304 139.048 47.8784 138.846 48.0664 138.59C48.2544 138.33 48.3764 138.038 48.4324 137.714C48.4804 137.506 48.5064 137.278 48.5104 137.03C48.5144 136.778 48.5164 136.59 48.5164 136.466L48.8524 136.64C48.5524 136.68 48.2264 136.72 47.8744 136.76C47.5264 136.8 47.1824 136.846 46.8424 136.898C46.5064 136.95 46.2024 137.012 45.9304 137.084C45.7464 137.136 45.5684 137.21 45.3964 137.306C45.2244 137.398 45.0824 137.522 44.9704 137.678C44.8624 137.834 44.8084 138.028 44.8084 138.26C44.8084 138.448 44.8544 138.63 44.9464 138.806C45.0424 138.982 45.1944 139.128 45.4024 139.244C45.6144 139.36 45.8944 139.418 46.2424 139.418ZM55.5144 140V136.694C55.5144 136.334 55.4804 136.004 55.4124 135.704C55.3444 135.4 55.2344 135.136 55.0824 134.912C54.9344 134.684 54.7404 134.508 54.5004 134.384C54.2644 134.26 53.9764 134.198 53.6364 134.198C53.3244 134.198 53.0484 134.252 52.8084 134.36C52.5724 134.468 52.3724 134.624 52.2084 134.828C52.0484 135.028 51.9264 135.272 51.8424 135.56C51.7584 135.848 51.7164 136.176 51.7164 136.544L51.0924 136.406C51.0924 135.742 51.2084 135.184 51.4404 134.732C51.6724 134.28 51.9924 133.938 52.4004 133.706C52.8084 133.474 53.2764 133.358 53.8044 133.358C54.1924 133.358 54.5304 133.418 54.8184 133.538C55.1104 133.658 55.3564 133.82 55.5564 134.024C55.7604 134.228 55.9244 134.462 56.0484 134.726C56.1724 134.986 56.2624 135.264 56.3184 135.56C56.3744 135.852 56.4024 136.144 56.4024 136.436V140H55.5144ZM50.8284 140V133.52H51.6264V135.116H51.7164V140H50.8284Z" fill="#ACB5BB"/>
<path d="M94.84 140V131.36H99.802V132.242H95.722V135.242H99.082V136.118H95.722V140H94.84ZM103.333 140.18C102.701 140.18 102.153 140.04 101.689 139.76C101.229 139.48 100.871 139.086 100.615 138.578C100.359 138.07 100.231 137.474 100.231 136.79C100.231 136.082 100.357 135.47 100.609 134.954C100.861 134.438 101.215 134.04 101.671 133.76C102.131 133.48 102.673 133.34 103.297 133.34C103.937 133.34 104.483 133.488 104.935 133.784C105.387 134.076 105.729 134.496 105.961 135.044C106.193 135.592 106.299 136.246 106.279 137.006H105.379V136.694C105.363 135.854 105.181 135.22 104.833 134.792C104.489 134.364 103.985 134.15 103.321 134.15C102.625 134.15 102.091 134.376 101.719 134.828C101.351 135.28 101.167 135.924 101.167 136.76C101.167 137.576 101.351 138.21 101.719 138.662C102.091 139.11 102.617 139.334 103.297 139.334C103.761 139.334 104.165 139.228 104.509 139.016C104.857 138.8 105.131 138.49 105.331 138.086L106.153 138.404C105.897 138.968 105.519 139.406 105.019 139.718C104.523 140.026 103.961 140.18 103.333 140.18ZM100.855 137.006V136.268H105.805V137.006H100.855ZM110.401 140.18C109.805 140.18 109.301 140.03 108.889 139.73C108.477 139.426 108.165 139.016 107.953 138.5C107.741 137.98 107.635 137.398 107.635 136.754C107.635 136.098 107.741 135.514 107.953 135.002C108.169 134.486 108.485 134.08 108.901 133.784C109.317 133.488 109.829 133.34 110.437 133.34C111.029 133.34 111.537 133.49 111.961 133.79C112.385 134.09 112.709 134.498 112.933 135.014C113.161 135.53 113.275 136.11 113.275 136.754C113.275 137.402 113.161 137.984 112.933 138.5C112.705 139.016 112.377 139.426 111.949 139.73C111.521 140.03 111.005 140.18 110.401 140.18ZM107.485 140V131.36H108.373V135.122H108.277V140H107.485ZM110.311 139.358C110.763 139.358 111.139 139.244 111.439 139.016C111.739 138.788 111.963 138.478 112.111 138.086C112.263 137.69 112.339 137.246 112.339 136.754C112.339 136.266 112.265 135.826 112.117 135.434C111.969 135.042 111.743 134.732 111.439 134.504C111.139 134.276 110.757 134.162 110.293 134.162C109.841 134.162 109.465 134.272 109.165 134.492C108.869 134.712 108.647 135.018 108.499 135.41C108.351 135.798 108.277 136.246 108.277 136.754C108.277 137.254 108.351 137.702 108.499 138.098C108.647 138.49 108.871 138.798 109.171 139.022C109.471 139.246 109.851 139.358 110.311 139.358Z" fill="#ACB5BB"/>
<path d="M150.84 140V131.36H151.65L155.046 138.626L158.424 131.36H159.246V139.994H158.406V133.328L155.328 140H154.758L151.686 133.328V140H150.84ZM162.664 140.18C162.176 140.18 161.766 140.092 161.434 139.916C161.106 139.74 160.86 139.506 160.696 139.214C160.532 138.922 160.45 138.604 160.45 138.26C160.45 137.908 160.52 137.608 160.66 137.36C160.804 137.108 160.998 136.902 161.242 136.742C161.49 136.582 161.776 136.46 162.1 136.376C162.428 136.296 162.79 136.226 163.186 136.166C163.586 136.102 163.976 136.048 164.356 136.004C164.74 135.956 165.076 135.91 165.364 135.866L165.052 136.058C165.064 135.418 164.94 134.944 164.68 134.636C164.42 134.328 163.968 134.174 163.324 134.174C162.88 134.174 162.504 134.274 162.196 134.474C161.892 134.674 161.678 134.99 161.554 135.422L160.696 135.17C160.844 134.59 161.142 134.14 161.59 133.82C162.038 133.5 162.62 133.34 163.336 133.34C163.928 133.34 164.43 133.452 164.842 133.676C165.258 133.896 165.552 134.216 165.724 134.636C165.804 134.824 165.856 135.034 165.88 135.266C165.904 135.498 165.916 135.734 165.916 135.974V140H165.13V138.374L165.358 138.47C165.138 139.026 164.796 139.45 164.332 139.742C163.868 140.034 163.312 140.18 162.664 140.18ZM162.766 139.418C163.178 139.418 163.538 139.344 163.846 139.196C164.154 139.048 164.402 138.846 164.59 138.59C164.778 138.33 164.9 138.038 164.956 137.714C165.004 137.506 165.03 137.278 165.034 137.03C165.038 136.778 165.04 136.59 165.04 136.466L165.376 136.64C165.076 136.68 164.75 136.72 164.398 136.76C164.05 136.8 163.706 136.846 163.366 136.898C163.03 136.95 162.726 137.012 162.454 137.084C162.27 137.136 162.092 137.21 161.92 137.306C161.748 137.398 161.606 137.522 161.494 137.678C161.386 137.834 161.332 138.028 161.332 138.26C161.332 138.448 161.378 138.63 161.47 138.806C161.566 138.982 161.718 139.128 161.926 139.244C162.138 139.36 162.418 139.418 162.766 139.418ZM167.358 140V133.52H168.15V135.08L167.994 134.876C168.066 134.684 168.16 134.508 168.276 134.348C168.392 134.184 168.518 134.05 168.654 133.946C168.822 133.798 169.018 133.686 169.242 133.61C169.466 133.53 169.692 133.484 169.92 133.472C170.148 133.456 170.356 133.472 170.544 133.52V134.348C170.308 134.288 170.05 134.274 169.77 134.306C169.49 134.338 169.232 134.45 168.996 134.642C168.78 134.81 168.618 135.012 168.51 135.248C168.402 135.48 168.33 135.728 168.294 135.992C168.258 136.252 168.24 136.51 168.24 136.766V140H167.358Z" fill="#ACB5BB"/>
<path d="M207.24 140L210.216 131.36H211.386L214.362 140H213.444L210.618 131.852H210.966L208.158 140H207.24ZM208.566 137.906V137.078H213.03V137.906H208.566ZM218.235 140.18C217.639 140.18 217.135 140.03 216.723 139.73C216.311 139.426 215.999 139.016 215.787 138.5C215.575 137.98 215.469 137.398 215.469 136.754C215.469 136.098 215.575 135.514 215.787 135.002C216.003 134.486 216.319 134.08 216.735 133.784C217.151 133.488 217.663 133.34 218.271 133.34C218.863 133.34 219.371 133.49 219.795 133.79C220.219 134.09 220.543 134.498 220.767 135.014C220.995 135.53 221.109 136.11 221.109 136.754C221.109 137.402 220.995 137.984 220.767 138.5C220.539 139.016 220.211 139.426 219.783 139.73C219.355 140.03 218.839 140.18 218.235 140.18ZM215.319 142.88V133.52H216.111V138.398H216.207V142.88H215.319ZM218.145 139.358C218.597 139.358 218.973 139.244 219.273 139.016C219.573 138.788 219.797 138.478 219.945 138.086C220.097 137.69 220.173 137.246 220.173 136.754C220.173 136.266 220.099 135.826 219.951 135.434C219.803 135.042 219.577 134.732 219.273 134.504C218.973 134.276 218.591 134.162 218.127 134.162C217.675 134.162 217.299 134.272 216.999 134.492C216.703 134.712 216.481 135.018 216.333 135.41C216.185 135.798 216.111 136.246 216.111 136.754C216.111 137.254 216.185 137.702 216.333 138.098C216.481 138.49 216.705 138.798 217.005 139.022C217.305 139.246 217.685 139.358 218.145 139.358ZM222.307 140V133.52H223.099V135.08L222.943 134.876C223.015 134.684 223.109 134.508 223.225 134.348C223.341 134.184 223.467 134.05 223.603 133.946C223.771 133.798 223.967 133.686 224.191 133.61C224.415 133.53 224.641 133.484 224.869 133.472C225.097 133.456 225.305 133.472 225.493 133.52V134.348C225.257 134.288 224.999 134.274 224.719 134.306C224.439 134.338 224.181 134.45 223.945 134.642C223.729 134.81 223.567 135.012 223.459 135.248C223.351 135.48 223.279 135.728 223.243 135.992C223.207 136.252 223.189 136.51 223.189 136.766V140H222.307Z" fill="#ACB5BB"/>
</g>
<defs>
<clipPath id="clip0_558_25029">
<rect width="219" height="143" fill="white"/>
</clipPath>
</defs>
</svg>
