<svg width="190" height="190" viewBox="0 0 190 190" fill="none" xmlns="http://www.w3.org/2000/svg">
<path d="M50.3429 14.5651C49.5387 13.1165 50.0592 11.2856 51.5324 10.5275C67.7428 2.18594 86.033 -1.3249 104.22 0.448555C122.406 2.22201 139.674 9.20021 153.967 20.5163C155.266 21.5448 155.423 23.4417 154.354 24.7077L140.458 41.1644C139.389 42.4303 137.5 42.5841 136.188 41.5725C126.174 33.852 114.172 29.0886 101.547 27.8574C88.9216 26.6263 76.2259 28.9814 64.9086 34.6218C63.4257 35.3608 61.6021 34.845 60.7979 33.3964L50.3429 14.5651Z" fill="#4D81E7"/>
<path d="M163.721 33.8327C164.958 32.7311 166.859 32.8384 167.921 34.1102C175.547 43.2437 181.39 53.7292 185.146 65.0202C185.668 66.5924 184.76 68.2649 183.172 68.7379L162.529 74.8863C160.941 75.3593 159.277 74.4528 158.734 72.8875C156.156 65.4568 152.298 58.5339 147.335 52.4322C146.29 51.1468 146.394 49.2546 147.632 48.1531L163.721 33.8327Z" fill="#C65468"/>
<path d="M186.062 81.893C187.702 81.6569 189.227 82.795 189.411 84.4416C191.559 103.642 187.802 123.068 178.605 140.113C168.933 158.038 153.755 172.381 135.31 181.024C116.866 189.667 96.1322 192.153 76.1675 188.115C57.1843 184.275 39.8524 174.731 26.472 160.795C25.3245 159.599 25.4263 157.699 26.6571 156.589L42.6574 142.17C43.8883 141.061 45.7806 141.165 46.9434 142.345C56.3596 151.903 68.4314 158.454 81.6267 161.122C95.804 163.99 110.527 162.224 123.625 156.087C136.723 149.949 147.501 139.765 154.37 127.035C160.763 115.187 163.454 101.719 162.134 88.3671C161.971 86.7183 163.102 85.1976 164.742 84.9616L186.062 81.893Z" fill="#31B099"/>
<path d="M20.1558 148.501C18.8079 149.464 16.9299 149.155 16.0094 147.778C9.64369 138.25 5.04931 127.643 2.45666 116.465C-0.362117 104.312 -0.759584 91.7225 1.28695 79.4159C3.33348 67.1093 7.78393 55.3264 14.3842 44.7397C20.455 35.0024 28.2352 26.4525 37.3418 19.4981C38.6586 18.4925 40.5356 18.8079 41.4991 20.1558L54.0246 37.6782C54.9881 39.0261 54.6719 40.8946 53.3682 41.9171C47.197 46.757 41.9107 52.6411 37.7533 59.3093C33.0664 66.8271 29.906 75.1944 28.4528 83.9335C26.9995 92.6726 27.2817 101.612 29.2834 110.242C31.0589 117.897 34.1563 125.175 38.429 131.752C39.3316 133.142 39.0261 135.012 37.6782 135.975L20.1558 148.501Z" fill="#E7854D"/>
<g filter="url(#filter0_d_558_25096)">
<circle cx="95.5" cy="95.5" r="57.5" fill="white"/>
</g>
<path d="M69.18 92V77.876L65.94 79.856V76.664L69.18 74.72H72.132V92H69.18ZM82.1994 92.36C80.9754 92.36 79.8954 92.1 78.9594 91.58C78.0234 91.052 77.2914 90.32 76.7634 89.384C76.2434 88.448 75.9834 87.368 75.9834 86.144V80.576C75.9834 79.352 76.2434 78.272 76.7634 77.336C77.2914 76.4 78.0234 75.672 78.9594 75.152C79.8954 74.624 80.9754 74.36 82.1994 74.36C83.4234 74.36 84.4994 74.624 85.4274 75.152C86.3634 75.672 87.0954 76.4 87.6234 77.336C88.1514 78.272 88.4154 79.352 88.4154 80.576V86.144C88.4154 87.368 88.1514 88.448 87.6234 89.384C87.0954 90.32 86.3634 91.052 85.4274 91.58C84.4994 92.1 83.4234 92.36 82.1994 92.36ZM82.1994 89.612C82.8074 89.612 83.3594 89.468 83.8554 89.18C84.3514 88.884 84.7434 88.492 85.0314 88.004C85.3194 87.508 85.4634 86.956 85.4634 86.348V80.36C85.4634 79.744 85.3194 79.192 85.0314 78.704C84.7434 78.208 84.3514 77.816 83.8554 77.528C83.3594 77.232 82.8074 77.084 82.1994 77.084C81.5914 77.084 81.0394 77.232 80.5434 77.528C80.0474 77.816 79.6554 78.208 79.3674 78.704C79.0794 79.192 78.9354 79.744 78.9354 80.36V86.348C78.9354 86.956 79.0794 87.508 79.3674 88.004C79.6554 88.492 80.0474 88.884 80.5434 89.18C81.0394 89.468 81.5914 89.612 82.1994 89.612ZM97.2763 92.36C96.0523 92.36 94.9723 92.1 94.0363 91.58C93.1003 91.052 92.3683 90.32 91.8403 89.384C91.3203 88.448 91.0603 87.368 91.0603 86.144V80.576C91.0603 79.352 91.3203 78.272 91.8403 77.336C92.3683 76.4 93.1003 75.672 94.0363 75.152C94.9723 74.624 96.0523 74.36 97.2763 74.36C98.5003 74.36 99.5763 74.624 100.504 75.152C101.44 75.672 102.172 76.4 102.7 77.336C103.228 78.272 103.492 79.352 103.492 80.576V86.144C103.492 87.368 103.228 88.448 102.7 89.384C102.172 90.32 101.44 91.052 100.504 91.58C99.5763 92.1 98.5003 92.36 97.2763 92.36ZM97.2763 89.612C97.8843 89.612 98.4363 89.468 98.9323 89.18C99.4283 88.884 99.8203 88.492 100.108 88.004C100.396 87.508 100.54 86.956 100.54 86.348V80.36C100.54 79.744 100.396 79.192 100.108 78.704C99.8203 78.208 99.4283 77.816 98.9323 77.528C98.4363 77.232 97.8843 77.084 97.2763 77.084C96.6683 77.084 96.1163 77.232 95.6203 77.528C95.1243 77.816 94.7323 78.208 94.4443 78.704C94.1563 79.192 94.0123 79.744 94.0123 80.36V86.348C94.0123 86.956 94.1563 87.508 94.4443 88.004C94.7323 88.492 95.1243 88.884 95.6203 89.18C96.1163 89.468 96.6683 89.612 97.2763 89.612ZM108.537 92L106.617 90.08L121.989 74.72L123.909 76.652L108.537 92ZM120.309 92.36C119.517 92.36 118.793 92.168 118.137 91.784C117.489 91.392 116.969 90.872 116.577 90.224C116.185 89.568 115.989 88.84 115.989 88.04C115.989 87.256 116.189 86.536 116.589 85.88C116.989 85.224 117.517 84.7 118.173 84.308C118.829 83.916 119.541 83.72 120.309 83.72C121.101 83.72 121.825 83.916 122.481 84.308C123.137 84.692 123.657 85.212 124.041 85.868C124.433 86.516 124.629 87.24 124.629 88.04C124.629 88.84 124.433 89.568 124.041 90.224C123.657 90.872 123.137 91.392 122.481 91.784C121.825 92.168 121.101 92.36 120.309 92.36ZM120.309 89.888C120.637 89.888 120.941 89.804 121.221 89.636C121.509 89.468 121.737 89.244 121.905 88.964C122.073 88.684 122.157 88.376 122.157 88.04C122.157 87.704 122.073 87.396 121.905 87.116C121.737 86.836 121.509 86.612 121.221 86.444C120.941 86.276 120.637 86.192 120.309 86.192C119.973 86.192 119.665 86.276 119.385 86.444C119.105 86.612 118.877 86.836 118.701 87.116C118.533 87.396 118.449 87.704 118.449 88.04C118.449 88.376 118.533 88.684 118.701 88.964C118.877 89.244 119.105 89.468 119.385 89.636C119.665 89.804 119.973 89.888 120.309 89.888ZM110.217 83C109.425 83 108.701 82.808 108.045 82.424C107.389 82.032 106.865 81.512 106.473 80.864C106.089 80.208 105.897 79.48 105.897 78.68C105.897 77.896 106.097 77.176 106.497 76.52C106.897 75.864 107.425 75.34 108.081 74.948C108.737 74.556 109.449 74.36 110.217 74.36C111.009 74.36 111.729 74.556 112.377 74.948C113.033 75.332 113.557 75.852 113.949 76.508C114.341 77.156 114.537 77.88 114.537 78.68C114.537 79.48 114.341 80.208 113.949 80.864C113.557 81.512 113.033 82.032 112.377 82.424C111.729 82.808 111.009 83 110.217 83ZM110.217 80.528C110.553 80.528 110.861 80.444 111.141 80.276C111.421 80.108 111.645 79.884 111.813 79.604C111.981 79.324 112.065 79.016 112.065 78.68C112.065 78.344 111.981 78.036 111.813 77.756C111.645 77.476 111.421 77.252 111.141 77.084C110.861 76.916 110.553 76.832 110.217 76.832C109.881 76.832 109.573 76.916 109.293 77.084C109.013 77.252 108.789 77.476 108.621 77.756C108.453 78.036 108.369 78.344 108.369 78.68C108.369 79.016 108.453 79.324 108.621 79.604C108.789 79.884 109.013 80.108 109.293 80.276C109.573 80.444 109.881 80.528 110.217 80.528Z" fill="#1A1C1E"/>
<path d="M55.84 114V105.36H58.504C58.592 105.36 58.746 105.362 58.966 105.366C59.186 105.37 59.396 105.386 59.596 105.414C60.264 105.502 60.822 105.746 61.27 106.146C61.722 106.542 62.062 107.046 62.29 107.658C62.518 108.27 62.632 108.944 62.632 109.68C62.632 110.416 62.518 111.09 62.29 111.702C62.062 112.314 61.722 112.82 61.27 113.22C60.822 113.616 60.264 113.858 59.596 113.946C59.396 113.97 59.184 113.986 58.96 113.994C58.74 113.998 58.588 114 58.504 114H55.84ZM56.938 112.98H58.504C58.656 112.98 58.826 112.976 59.014 112.968C59.202 112.956 59.366 112.938 59.506 112.914C59.978 112.826 60.36 112.628 60.652 112.32C60.944 112.012 61.158 111.628 61.294 111.168C61.43 110.708 61.498 110.212 61.498 109.68C61.498 109.136 61.428 108.634 61.288 108.174C61.152 107.714 60.938 107.332 60.646 107.028C60.354 106.724 59.974 106.53 59.506 106.446C59.366 106.418 59.2 106.4 59.008 106.392C58.816 106.384 58.648 106.38 58.504 106.38H56.938V112.98ZM65.61 114.18C65.126 114.18 64.72 114.092 64.392 113.916C64.068 113.736 63.822 113.5 63.654 113.208C63.49 112.916 63.408 112.596 63.408 112.248C63.408 111.908 63.472 111.614 63.6 111.366C63.732 111.114 63.916 110.906 64.152 110.742C64.388 110.574 64.67 110.442 64.998 110.346C65.306 110.262 65.65 110.19 66.03 110.13C66.414 110.066 66.802 110.008 67.194 109.956C67.586 109.904 67.952 109.854 68.292 109.806L67.908 110.028C67.92 109.452 67.804 109.026 67.56 108.75C67.32 108.474 66.904 108.336 66.312 108.336C65.92 108.336 65.576 108.426 65.28 108.606C64.988 108.782 64.782 109.07 64.662 109.47L63.648 109.164C63.804 108.596 64.106 108.15 64.554 107.826C65.002 107.502 65.592 107.34 66.324 107.34C66.912 107.34 67.416 107.446 67.836 107.658C68.26 107.866 68.564 108.182 68.748 108.606C68.84 108.806 68.898 109.024 68.922 109.26C68.946 109.492 68.958 109.736 68.958 109.992V114H68.01V112.446L68.232 112.59C67.988 113.114 67.646 113.51 67.206 113.778C66.77 114.046 66.238 114.18 65.61 114.18ZM65.772 113.286C66.156 113.286 66.488 113.218 66.768 113.082C67.052 112.942 67.28 112.76 67.452 112.536C67.624 112.308 67.736 112.06 67.788 111.792C67.848 111.592 67.88 111.37 67.884 111.126C67.892 110.878 67.896 110.688 67.896 110.556L68.268 110.718C67.92 110.766 67.578 110.812 67.242 110.856C66.906 110.9 66.588 110.948 66.288 111C65.988 111.048 65.718 111.106 65.478 111.174C65.302 111.23 65.136 111.302 64.98 111.39C64.828 111.478 64.704 111.592 64.608 111.732C64.516 111.868 64.47 112.038 64.47 112.242C64.47 112.418 64.514 112.586 64.602 112.746C64.694 112.906 64.834 113.036 65.022 113.136C65.214 113.236 65.464 113.286 65.772 113.286ZM73.896 114C73.512 114.076 73.132 114.106 72.756 114.09C72.384 114.078 72.052 114.004 71.76 113.868C71.468 113.728 71.246 113.512 71.094 113.22C70.966 112.964 70.896 112.706 70.884 112.446C70.876 112.182 70.872 111.884 70.872 111.552V105.72H71.94V111.504C71.94 111.768 71.942 111.994 71.946 112.182C71.954 112.37 71.996 112.532 72.072 112.668C72.216 112.924 72.444 113.074 72.756 113.118C73.072 113.162 73.452 113.15 73.896 113.082V114ZM69.558 108.402V107.52H73.896V108.402H69.558ZM76.8136 114.18C76.3296 114.18 75.9236 114.092 75.5956 113.916C75.2716 113.736 75.0256 113.5 74.8576 113.208C74.6936 112.916 74.6116 112.596 74.6116 112.248C74.6116 111.908 74.6756 111.614 74.8036 111.366C74.9356 111.114 75.1196 110.906 75.3556 110.742C75.5916 110.574 75.8736 110.442 76.2016 110.346C76.5096 110.262 76.8536 110.19 77.2336 110.13C77.6176 110.066 78.0056 110.008 78.3976 109.956C78.7896 109.904 79.1556 109.854 79.4956 109.806L79.1116 110.028C79.1236 109.452 79.0076 109.026 78.7636 108.75C78.5236 108.474 78.1076 108.336 77.5156 108.336C77.1236 108.336 76.7796 108.426 76.4836 108.606C76.1916 108.782 75.9856 109.07 75.8656 109.47L74.8516 109.164C75.0076 108.596 75.3096 108.15 75.7576 107.826C76.2056 107.502 76.7956 107.34 77.5276 107.34C78.1156 107.34 78.6196 107.446 79.0396 107.658C79.4636 107.866 79.7676 108.182 79.9516 108.606C80.0436 108.806 80.1016 109.024 80.1256 109.26C80.1496 109.492 80.1616 109.736 80.1616 109.992V114H79.2136V112.446L79.4356 112.59C79.1916 113.114 78.8496 113.51 78.4096 113.778C77.9736 114.046 77.4416 114.18 76.8136 114.18ZM76.9756 113.286C77.3596 113.286 77.6916 113.218 77.9716 113.082C78.2556 112.942 78.4836 112.76 78.6556 112.536C78.8276 112.308 78.9396 112.06 78.9916 111.792C79.0516 111.592 79.0836 111.37 79.0876 111.126C79.0956 110.878 79.0996 110.688 79.0996 110.556L79.4716 110.718C79.1236 110.766 78.7816 110.812 78.4456 110.856C78.1096 110.9 77.7916 110.948 77.4916 111C77.1916 111.048 76.9216 111.106 76.6816 111.174C76.5056 111.23 76.3396 111.302 76.1836 111.39C76.0316 111.478 75.9076 111.592 75.8116 111.732C75.7196 111.868 75.6736 112.038 75.6736 112.242C75.6736 112.418 75.7176 112.586 75.8056 112.746C75.8976 112.906 76.0376 113.036 76.2256 113.136C76.4176 113.236 76.6676 113.286 76.9756 113.286ZM83.6439 114V105.36H87.0579C87.1419 105.36 87.2419 105.364 87.3579 105.372C87.4739 105.376 87.5859 105.388 87.6939 105.408C88.1619 105.48 88.5539 105.64 88.8699 105.888C89.1899 106.136 89.4299 106.45 89.5899 106.83C89.7499 107.206 89.8299 107.624 89.8299 108.084C89.8299 108.752 89.6559 109.332 89.3079 109.824C88.9599 110.312 88.4499 110.618 87.7779 110.742L87.3699 110.808H84.7119V114H83.6439ZM88.7859 114L87.0819 110.484L88.1379 110.16L90.0099 114H88.7859ZM84.7119 109.794H87.0219C87.0979 109.794 87.1839 109.79 87.2799 109.782C87.3799 109.774 87.4739 109.76 87.5619 109.74C87.8379 109.676 88.0619 109.56 88.2339 109.392C88.4099 109.22 88.5379 109.02 88.6179 108.792C88.6979 108.56 88.7379 108.324 88.7379 108.084C88.7379 107.844 88.6979 107.61 88.6179 107.382C88.5379 107.15 88.4099 106.948 88.2339 106.776C88.0619 106.604 87.8379 106.488 87.5619 106.428C87.4739 106.404 87.3799 106.39 87.2799 106.386C87.1839 106.378 87.0979 106.374 87.0219 106.374H84.7119V109.794ZM93.8994 114.18C93.2634 114.18 92.7074 114.04 92.2314 113.76C91.7594 113.476 91.3914 113.082 91.1274 112.578C90.8634 112.07 90.7314 111.478 90.7314 110.802C90.7314 110.094 90.8614 109.482 91.1214 108.966C91.3814 108.446 91.7434 108.046 92.2074 107.766C92.6754 107.482 93.2234 107.34 93.8514 107.34C94.5034 107.34 95.0574 107.49 95.5134 107.79C95.9734 108.09 96.3174 108.518 96.5454 109.074C96.7774 109.63 96.8774 110.292 96.8454 111.06H95.7654V110.676C95.7534 109.88 95.5914 109.286 95.2794 108.894C94.9674 108.498 94.5034 108.3 93.8874 108.3C93.2274 108.3 92.7254 108.512 92.3814 108.936C92.0374 109.36 91.8654 109.968 91.8654 110.76C91.8654 111.524 92.0374 112.116 92.3814 112.536C92.7254 112.956 93.2154 113.166 93.8514 113.166C94.2794 113.166 94.6514 113.068 94.9674 112.872C95.2834 112.676 95.5314 112.394 95.7114 112.026L96.7374 112.38C96.4854 112.952 96.1054 113.396 95.5974 113.712C95.0934 114.024 94.5274 114.18 93.8994 114.18ZM91.5054 111.06V110.202H96.2934V111.06H91.5054ZM100.671 114.18C100.015 114.18 99.4572 114.034 98.9972 113.742C98.5412 113.446 98.1932 113.04 97.9532 112.524C97.7132 112.008 97.5892 111.42 97.5812 110.76C97.5892 110.084 97.7152 109.49 97.9592 108.978C98.2072 108.462 98.5612 108.06 99.0212 107.772C99.4812 107.484 100.035 107.34 100.683 107.34C101.367 107.34 101.955 107.508 102.447 107.844C102.943 108.18 103.275 108.64 103.443 109.224L102.387 109.542C102.251 109.166 102.029 108.874 101.721 108.666C101.417 108.458 101.067 108.354 100.671 108.354C100.227 108.354 99.8612 108.458 99.5732 108.666C99.2852 108.87 99.0712 109.154 98.9312 109.518C98.7912 109.878 98.7192 110.292 98.7152 110.76C98.7232 111.48 98.8892 112.062 99.2132 112.506C99.5412 112.946 100.027 113.166 100.671 113.166C101.095 113.166 101.447 113.07 101.727 112.878C102.007 112.682 102.219 112.4 102.363 112.032L103.443 112.314C103.219 112.918 102.869 113.38 102.393 113.7C101.917 114.02 101.343 114.18 100.671 114.18ZM107.012 114.18C106.368 114.18 105.812 114.034 105.344 113.742C104.88 113.45 104.522 113.046 104.27 112.53C104.018 112.014 103.892 111.422 103.892 110.754C103.892 110.074 104.02 109.478 104.276 108.966C104.532 108.454 104.894 108.056 105.362 107.772C105.83 107.484 106.38 107.34 107.012 107.34C107.66 107.34 108.218 107.486 108.686 107.778C109.154 108.066 109.512 108.468 109.76 108.984C110.012 109.496 110.138 110.086 110.138 110.754C110.138 111.43 110.012 112.026 109.76 112.542C109.508 113.054 109.148 113.456 108.68 113.748C108.212 114.036 107.656 114.18 107.012 114.18ZM107.012 113.166C107.684 113.166 108.184 112.942 108.512 112.494C108.84 112.046 109.004 111.466 109.004 110.754C109.004 110.022 108.838 109.44 108.506 109.008C108.174 108.572 107.676 108.354 107.012 108.354C106.56 108.354 106.188 108.456 105.896 108.66C105.604 108.864 105.386 109.146 105.242 109.506C105.098 109.866 105.026 110.282 105.026 110.754C105.026 111.482 105.194 112.066 105.53 112.506C105.866 112.946 106.36 113.166 107.012 113.166ZM111.219 114V107.52H112.173V109.086L112.017 108.882C112.093 108.682 112.191 108.498 112.311 108.33C112.435 108.162 112.573 108.024 112.725 107.916C112.893 107.78 113.083 107.676 113.295 107.604C113.507 107.532 113.723 107.49 113.943 107.478C114.163 107.462 114.369 107.476 114.561 107.52V108.522C114.337 108.462 114.091 108.446 113.823 108.474C113.555 108.502 113.307 108.6 113.079 108.768C112.871 108.916 112.709 109.096 112.593 109.308C112.481 109.52 112.403 109.75 112.359 109.998C112.315 110.242 112.293 110.492 112.293 110.748V114H111.219ZM117.882 114.18C117.278 114.18 116.76 114.03 116.328 113.73C115.896 113.426 115.562 113.016 115.326 112.5C115.094 111.984 114.978 111.402 114.978 110.754C114.978 110.106 115.094 109.524 115.326 109.008C115.562 108.492 115.896 108.086 116.328 107.79C116.76 107.49 117.276 107.34 117.876 107.34C118.488 107.34 119.002 107.488 119.418 107.784C119.834 108.08 120.148 108.486 120.36 109.002C120.576 109.518 120.684 110.102 120.684 110.754C120.684 111.398 120.576 111.98 120.36 112.5C120.148 113.016 119.834 113.426 119.418 113.73C119.002 114.03 118.49 114.18 117.882 114.18ZM118.014 113.202C118.45 113.202 118.808 113.098 119.088 112.89C119.368 112.678 119.574 112.388 119.706 112.02C119.842 111.648 119.91 111.226 119.91 110.754C119.91 110.274 119.842 109.852 119.706 109.488C119.574 109.12 119.37 108.834 119.094 108.63C118.818 108.422 118.468 108.318 118.044 108.318C117.604 108.318 117.24 108.426 116.952 108.642C116.668 108.858 116.456 109.15 116.316 109.518C116.18 109.886 116.112 110.298 116.112 110.754C116.112 111.214 116.182 111.63 116.322 112.002C116.462 112.37 116.672 112.662 116.952 112.878C117.236 113.094 117.59 113.202 118.014 113.202ZM119.91 114V109.23H119.79V105.36H120.864V114H119.91ZM125.113 114.18C124.477 114.18 123.921 114.04 123.445 113.76C122.973 113.476 122.605 113.082 122.341 112.578C122.077 112.07 121.945 111.478 121.945 110.802C121.945 110.094 122.075 109.482 122.335 108.966C122.595 108.446 122.957 108.046 123.421 107.766C123.889 107.482 124.437 107.34 125.065 107.34C125.717 107.34 126.271 107.49 126.727 107.79C127.187 108.09 127.531 108.518 127.759 109.074C127.991 109.63 128.091 110.292 128.059 111.06H126.979V110.676C126.967 109.88 126.805 109.286 126.493 108.894C126.181 108.498 125.717 108.3 125.101 108.3C124.441 108.3 123.939 108.512 123.595 108.936C123.251 109.36 123.079 109.968 123.079 110.76C123.079 111.524 123.251 112.116 123.595 112.536C123.939 112.956 124.429 113.166 125.065 113.166C125.493 113.166 125.865 113.068 126.181 112.872C126.497 112.676 126.745 112.394 126.925 112.026L127.951 112.38C127.699 112.952 127.319 113.396 126.811 113.712C126.307 114.024 125.741 114.18 125.113 114.18ZM122.719 111.06V110.202H127.507V111.06H122.719ZM131.699 114.18C131.095 114.18 130.577 114.03 130.145 113.73C129.713 113.426 129.379 113.016 129.143 112.5C128.911 111.984 128.795 111.402 128.795 110.754C128.795 110.106 128.911 109.524 129.143 109.008C129.379 108.492 129.713 108.086 130.145 107.79C130.577 107.49 131.093 107.34 131.693 107.34C132.305 107.34 132.819 107.488 133.235 107.784C133.651 108.08 133.965 108.486 134.177 109.002C134.393 109.518 134.501 110.102 134.501 110.754C134.501 111.398 134.393 111.98 134.177 112.5C133.965 113.016 133.651 113.426 133.235 113.73C132.819 114.03 132.307 114.18 131.699 114.18ZM131.831 113.202C132.267 113.202 132.625 113.098 132.905 112.89C133.185 112.678 133.391 112.388 133.523 112.02C133.659 111.648 133.727 111.226 133.727 110.754C133.727 110.274 133.659 109.852 133.523 109.488C133.391 109.12 133.187 108.834 132.911 108.63C132.635 108.422 132.285 108.318 131.861 108.318C131.421 108.318 131.057 108.426 130.769 108.642C130.485 108.858 130.273 109.15 130.133 109.518C129.997 109.886 129.929 110.298 129.929 110.754C129.929 111.214 129.999 111.63 130.139 112.002C130.279 112.37 130.489 112.662 130.769 112.878C131.053 113.094 131.407 113.202 131.831 113.202ZM133.727 114V109.23H133.607V105.36H134.681V114H133.727Z" fill="#6C7278"/>
<defs>
<filter id="filter0_d_558_25096" x="14" y="14" width="163" height="163" filterUnits="userSpaceOnUse" color-interpolation-filters="sRGB">
<feFlood flood-opacity="0" result="BackgroundImageFix"/>
<feColorMatrix in="SourceAlpha" type="matrix" values="0 0 0 0 0 0 0 0 0 0 0 0 0 0 0 0 0 0 127 0" result="hardAlpha"/>
<feOffset/>
<feGaussianBlur stdDeviation="12"/>
<feComposite in2="hardAlpha" operator="out"/>
<feColorMatrix type="matrix" values="0 0 0 0 0 0 0 0 0 0 0 0 0 0 0 0 0 0 0.09 0"/>
<feBlend mode="normal" in2="BackgroundImageFix" result="effect1_dropShadow_558_25096"/>
<feBlend mode="normal" in="SourceGraphic" in2="effect1_dropShadow_558_25096" result="shape"/>
</filter>
</defs>
</svg>
