<svg width="92" height="91" viewBox="0 0 92 91" fill="none" xmlns="http://www.w3.org/2000/svg">
<g filter="url(#filter0_d_606_26994)">
<path d="M46 6.25C34.2912 6.25 24.75 15.7912 24.75 27.5C24.75 39.2088 34.2912 48.75 46 48.75C57.7088 48.75 67.25 39.2088 67.25 27.5C67.25 15.7912 57.7088 6.25 46 6.25ZM56.1575 22.6125L44.1087 34.6612C43.8112 34.9587 43.4075 35.1288 42.9825 35.1288C42.5575 35.1288 42.1538 34.9587 41.8563 34.6612L35.8425 28.6475C35.2262 28.0312 35.2262 27.0112 35.8425 26.395C36.4587 25.7787 37.4787 25.7787 38.095 26.395L42.9825 31.2825L53.905 20.36C54.5213 19.7438 55.5413 19.7438 56.1575 20.36C56.7738 20.9763 56.7738 21.975 56.1575 22.6125Z" fill="white"/>
</g>
<defs>
<filter id="filter0_d_606_26994" x="-3.5" y="-4" width="99" height="99" filterUnits="userSpaceOnUse" color-interpolation-filters="sRGB">
<feFlood flood-opacity="0" result="BackgroundImageFix"/>
<feColorMatrix in="SourceAlpha" type="matrix" values="0 0 0 0 0 0 0 0 0 0 0 0 0 0 0 0 0 0 127 0" result="hardAlpha"/>
<feOffset dy="18"/>
<feGaussianBlur stdDeviation="12"/>
<feComposite in2="hardAlpha" operator="out"/>
<feColorMatrix type="matrix" values="0 0 0 0 0 0 0 0 0 0 0 0 0 0 0 0 0 0 0.24 0"/>
<feBlend mode="normal" in2="BackgroundImageFix" result="effect1_dropShadow_606_26994"/>
<feBlend mode="normal" in="SourceGraphic" in2="effect1_dropShadow_606_26994" result="shape"/>
</filter>
</defs>
</svg>
